<svg width="180" height="180" viewBox="0 0 180 180" fill="none" xmlns="http://www.w3.org/2000/svg">
<g clip-path="url(#clip0_2039_308)">
<path d="M8.70972 90C8.70972 45.1046 45.1046 8.70966 90 8.70966C134.895 8.70966 171.29 45.1046 171.29 90C171.29 134.895 134.895 171.29 90 171.29C45.1046 171.29 8.70972 134.895 8.70972 90Z" fill="#C5E7EA"/>
<path d="M106.896 110.119H134.244V120.397H92.7864V110.99L119.961 69.8806H92.7864V59.6032H134.244V69.0097L106.896 110.119Z" fill="#327F86"/>
<path d="M57.9492 110.729H77.9814V120.397H45.7556V59.6032H57.9492V110.729Z" fill="#327F86"/>
</g>
<path d="M3.8738 105.504C4.57485 109.789 6.21518 114.903 7.49169 118.994C7.50929 119.052 7.52695 119.109 7.54467 119.166C8.06226 120.838 8.60713 122.548 9.34565 124.586C9.44022 124.846 9.53805 125.112 9.6397 125.383C10.5479 127.79 11.7424 130.729 13.7557 134.565C20.567 147.537 29.8292 155.002 32.5523 157.17C38.1721 161.566 44.4003 166.055 53.8528 170.365C54.7178 170.753 55.6147 171.141 56.5344 171.518C57.2803 171.824 57.8239 172.271 57.7426 172.531C57.6612 172.792 56.977 172.764 56.2209 172.455C55.3097 172.082 54.4218 171.701 53.5663 171.318C53.5624 171.316 53.5585 171.314 53.5546 171.313C43.932 166.935 37.7786 162.481 32.2109 158.167C29.3914 155.941 19.7576 148.235 12.7433 134.769C10.6992 130.842 9.48941 127.834 8.57541 125.38C8.47586 125.111 8.38047 124.848 8.28859 124.592C8.28647 124.586 8.28435 124.58 8.28223 124.574C7.541 122.5 7.02033 120.835 6.52481 119.219C6.51407 119.185 6.50334 119.151 6.49264 119.116C5.19732 114.93 3.58571 109.851 2.89824 105.649C2.76342 104.848 2.88567 104.166 3.1556 104.132C3.42585 104.097 3.74027 104.714 3.8738 105.504ZM168.284 58.7756C166.473 55.1621 164.179 50.3561 161.837 46.2482C159.507 42.0984 157.097 38.4923 155.949 36.796C154.831 35.1354 153.426 33.407 151.625 31.4593C151.212 31.0129 150.777 30.5553 150.323 30.0873C148.82 28.5414 147.09 26.8771 145.132 25.1096C137.893 18.6417 132.211 15.5993 128.188 13.5721C127.352 13.1596 126.568 12.7922 125.83 12.4583C125.829 12.4577 125.828 12.4571 125.826 12.4565C123.035 11.1976 120.905 10.3883 118.966 9.56642C115.513 8.12112 112.61 7.09147 109.073 5.9272C104.186 4.27089 96.8145 3.46447 92.0617 3.74042C91.8006 3.75231 91.5333 3.76635 91.2627 3.78122C90.854 3.8037 90.4339 3.82961 90 3.85928C86.7731 4.09237 82.8545 4.45973 77.3721 5.45265C72.216 6.4037 67.7917 7.51761 63.9333 8.69702C62.8251 9.03661 61.7755 9.37845 60.7756 9.72462C58.2423 10.603 56.0192 11.5016 53.9803 12.4739C41.3859 18.6447 35.3201 24.2038 31.3759 27.386C28.3854 29.9207 26.725 31.3852 25.5167 32.4362C25.1535 32.7559 24.8342 33.041 24.5413 33.3167C21.9333 35.7824 19.7787 38.2947 17.3979 41.4839C16.8713 42.1922 16.3332 42.9379 15.7821 43.7268C13.9418 46.3666 12.8277 48.5055 12.0335 50.2063C11.6866 50.952 11.4003 51.6188 11.1384 52.2489C11.1337 52.2605 11.129 52.2722 11.1243 52.2839C11.0879 52.3716 11.0515 52.4585 11.0159 52.545C10.989 52.6103 10.9632 52.6759 10.9365 52.7412C10.9291 52.7684 10.9214 52.7922 10.916 52.8102C10.9118 52.8244 10.9084 52.8354 10.9062 52.8425C10.906 52.844 10.9057 52.8454 10.9055 52.8468C10.8658 52.9756 10.824 53.0829 10.8154 53.1049C10.8006 53.1433 10.7863 53.1769 10.7792 53.1942C10.7418 53.2853 10.6909 53.4015 10.6568 53.4787C10.5694 53.677 10.4156 54.0208 10.1827 54.5552C9.98965 55.0247 9.81713 55.4811 9.6079 56.0547C9.59487 56.0907 9.58187 56.1268 9.56888 56.1628C9.36683 56.7206 9.13432 57.3749 8.84766 58.198C8.58681 58.9462 8.15143 59.5623 7.86036 59.5692C7.56978 59.576 7.5337 58.9621 7.79446 58.2026C8.06461 57.417 8.28122 56.7957 8.48298 56.23C8.49567 56.1941 8.50839 56.1582 8.52111 56.1224C8.732 55.5343 8.94015 54.9739 9.18275 54.3817C9.26406 54.1833 9.35 53.9797 9.43174 53.7902C9.57312 53.4464 9.72945 53.0533 9.91975 52.5842C9.95795 52.49 9.99811 52.3932 10.0387 52.294C10.2987 51.6586 10.6113 50.9164 10.9899 50.0944C11.8774 48.1746 13.1238 45.7815 15.1604 42.8836C15.6951 42.1244 16.2229 41.3969 16.7477 40.695C19.1717 37.4626 21.5168 34.7361 24.3373 32.1134C24.7246 31.7545 25.1058 31.4204 25.516 31.0667C26.7379 30.0254 28.1834 28.7757 30.9876 26.4152C34.8032 23.3697 40.7821 17.868 53.4387 11.6388C55.6012 10.6025 58.0028 9.63593 60.6101 8.73863C61.6021 8.39729 62.6264 8.06413 63.6796 7.74195C67.5225 6.5693 71.8577 5.47894 76.8915 4.53172C82.6516 3.47004 86.6533 3.09294 90 2.84944C90.2213 2.83434 90.4395 2.82023 90.655 2.80706C90.7751 2.79944 90.8953 2.79206 91.0154 2.78492C91.1646 2.77641 91.3127 2.76831 91.4595 2.76071C96.5755 2.42948 104.525 3.26789 109.971 5.15732C113.384 6.3084 116.19 7.31362 119.656 8.77971C121.363 9.51278 123.205 10.2035 125.979 11.4416C126.756 11.7902 127.603 12.1849 128.536 12.6443C132.682 14.7267 138.518 17.8519 145.911 24.4809C147.825 26.2161 149.499 27.8261 151.011 29.3801C151.481 29.8629 151.936 30.3424 152.375 30.8176C154.205 32.7969 155.8 34.7423 157.093 36.6922C158.161 38.293 160.503 41.8324 162.787 45.9212C165.112 50.0272 167.254 54.5261 168.892 57.7266C169.063 58.0584 169.234 58.3948 169.402 58.7323C170.858 61.6413 172.148 64.7034 173.316 67.1708C176.373 72.5435 178.374 81.0796 178.407 90C178.522 99.0337 176.605 108.272 174.364 115.291C174.307 115.475 174.248 115.659 174.19 115.842C168.959 132.057 160.985 141.842 158.459 145.092C158.337 145.245 158.226 145.383 158.125 145.507C158.035 145.617 157.954 145.717 157.882 145.805C156.799 147.123 155.833 148.282 154.791 149.473C154.734 149.538 154.677 149.603 154.62 149.668C153.513 150.921 152.317 152.209 150.815 153.642C145.216 158.958 140.066 162.642 135.432 165.504C134.573 166.032 133.728 166.531 132.896 167.006C132.893 167.007 132.891 167.008 132.888 167.01C129.24 169.087 125.855 170.686 122.57 171.995C116.563 174.362 112.318 175.471 109.027 176.28C107.987 176.529 107.032 176.742 106.125 176.93C104.161 177.336 102.435 177.632 100.643 177.862C97.2692 178.291 94.1529 178.545 91.0712 178.649C90.7958 178.658 90.5205 178.665 90.2451 178.672C90.1634 178.674 90.0817 178.676 90 178.677C86.7297 178.745 83.4928 178.638 80.0925 178.264C79.2801 178.174 78.6392 177.867 78.6576 177.595C78.6769 177.323 79.3394 177.187 80.1406 177.276C83.4887 177.646 86.6843 177.757 89.9998 177.688C89.9999 177.688 90 177.688 90 177.688C90.274 177.682 90.5488 177.674 90.8238 177.666C93.867 177.57 97.0051 177.325 100.402 176.898C102.113 176.68 103.722 176.409 105.63 176.022C106.539 175.837 107.507 175.625 108.593 175.367C111.9 174.563 116.152 173.458 122.151 171.1C125.361 169.823 128.668 168.268 132.277 166.222C133.105 165.752 133.949 165.254 134.81 164.727C139.408 161.896 144.532 158.242 150.101 152.958C151.505 151.62 152.631 150.417 153.724 149.186C153.785 149.117 153.847 149.048 153.908 148.979C154.933 147.814 155.945 146.607 157.076 145.231C157.227 145.047 157.42 144.812 157.649 144.527C160.152 141.311 168.078 131.6 173.261 115.507C173.277 115.457 173.293 115.408 173.309 115.358C176.631 104.572 176.967 98.0891 176.976 93.3271C176.96 92.1293 176.931 91.0249 176.895 90C176.816 87.7991 176.713 86.0185 176.598 84.4371C176.566 83.9973 176.532 83.582 176.498 83.1867C176.349 81.4832 176.189 80.1323 175.949 78.7983C175.207 74.7739 174.284 71.9419 172.815 68.7061C171.563 65.9521 170.177 62.614 168.782 59.7767C168.78 59.7724 168.778 59.7682 168.776 59.7639C168.611 59.4269 168.447 59.0965 168.284 58.7756ZM6.01452 69.2816C5.81764 70.0473 5.45647 70.6183 5.19251 70.5513C4.92894 70.4835 4.86464 69.7939 5.0643 69.0177C5.53957 67.1689 6.07779 65.3292 6.67382 63.5168C6.92473 62.7532 7.34617 62.216 7.60125 62.3101C7.85666 62.4053 7.85186 63.0887 7.60453 63.8428C7.01576 65.6345 6.48391 67.4539 6.01452 69.2816ZM164.798 63.4342C164.51 62.7865 164.422 62.0636 164.614 61.817C164.806 61.5714 165.211 61.8997 165.509 62.5559C165.666 62.9019 165.926 63.4703 166.263 64.2446C167.976 68.15 171.713 77.6996 172.29 90C172.545 95.0226 172.289 100.444 171.36 105.867C171.094 107.431 170.812 108.84 170.517 110.163C169.138 115.775 168.66 120.689 163.323 130.608C148.925 156.845 119.542 173.528 90 173.038C72.696 172.985 55.511 167.489 41.2913 157.568C30.1615 149.848 21.0831 139.222 15.0753 127.029C9.31808 117.02 6.48396 96.1962 7.02492 91.3688C7.02052 90.6058 7.24984 89.9915 7.52192 90.0001C7.79425 90.0088 8.0064 90.6281 8.01098 91.3804C7.48135 96.1182 10.2567 116.625 15.908 126.486C21.8161 138.521 30.7492 149.016 41.7103 156.655C55.7904 166.526 72.907 171.839 90 171.681C119.131 171.786 147.463 155.017 161.444 129.497C166.566 119.962 168.122 115.713 169.502 110.166C169.798 108.857 170.081 107.46 170.351 105.899C171.296 100.459 171.553 95.0209 171.292 90C170.721 78.2172 167.225 69.0507 165.562 65.1774C165.224 64.3847 164.959 63.7971 164.798 63.4342ZM147.396 34.6082C141.753 28.7151 132.47 21.4972 123.198 17.2572C118.715 15.1394 114.335 13.6195 110.774 12.6468C105.244 11.1582 101.701 10.4421 98.1405 9.82645C98.1025 9.8202 98.0645 9.81397 98.0265 9.80777C95.618 9.41438 93.1792 9.10188 90 9.00086C88.4932 8.95613 86.8494 8.96278 84.9582 9.06653C79.0271 9.36102 70.8595 10.8363 63.1282 13.7737C63.1221 13.7758 63.116 13.778 63.1099 13.7801C55.3711 16.6404 48.4447 21.351 43.6079 24.7965C26.6602 37.0252 20.2388 48.9909 16.7823 54.4837C10.7876 64.5159 8.70748 77.784 7.57875 89.606C7.32269 90.9346 6.53869 88.6793 6.86619 86.2443C6.87617 86.1567 6.88628 86.0691 6.89653 85.9816C6.99371 85.1449 7.08342 84.4069 7.20106 83.379C7.35018 81.8897 7.47442 80.7794 7.59957 79.7665C7.43809 77.0318 12.2246 58.9636 16.1535 53.5765C19.5018 48.3943 24.8203 35.7047 42.3913 22.9845C47.3061 19.4961 54.79 15.8215 62.6159 12.9093C62.6373 12.9013 62.6587 12.8933 62.6801 12.8853C70.443 9.92041 78.7863 8.38347 84.8899 8.08191C86.7969 7.97692 88.4662 7.9685 90 8.01229C93.4259 8.11738 96.0275 8.4624 98.5399 8.88373C98.5754 8.88986 98.611 8.89603 98.6465 8.90222C102.21 9.534 105.631 10.2429 111.021 11.6926C114.706 12.6983 119.191 14.2614 123.754 16.4277C133.09 20.7243 142.349 27.9357 148.023 33.8387C148.543 34.3658 148.813 34.9719 148.636 35.1809C148.458 35.3898 147.907 35.1284 147.396 34.6082ZM142.867 38.7637C128.439 25.2812 109.581 17.1404 90 16.2395C88.5242 16.1676 87.0681 16.1338 85.5989 16.1392C80.1232 16.3909 72.4988 17.5268 65.2628 20.0425C65.181 20.0701 65.0993 20.0979 65.0177 20.1258C57.8464 22.5716 51.2073 26.3085 46.7922 29.4572C31.0188 40.8697 25.4472 52.266 22.2381 57.3116C19.3701 62.2433 18.9364 63.8208 18.1559 66.026C18.1353 66.0866 18.1147 66.1474 18.0942 66.2081C18.0936 66.2124 18.093 66.2166 18.0925 66.2209C18.0792 66.3015 18.065 66.3681 18.0571 66.4022C18.0411 66.4717 18.0254 66.5275 18.0196 66.5484C18.0061 66.5967 17.9933 66.6367 17.9888 66.651C17.9707 66.7093 17.9491 66.7758 17.9348 66.8185C17.7995 67.2175 17.3827 68.4554 17.0645 69.4466C16.7369 70.4614 16.4956 71.1874 16.2482 71.9495C16.2231 72.0268 16.1981 72.1042 16.1732 72.1816C15.953 72.8716 15.7184 73.6269 15.4283 74.7304C15.253 75.3979 14.9187 75.8365 14.6691 75.7029C14.4202 75.5685 14.354 74.9091 14.5349 74.2296C14.848 73.0542 15.1045 72.243 15.3317 71.5425C15.3571 71.4648 15.3826 71.3872 15.4083 71.3097C15.6512 70.5733 15.87 69.92 16.1659 69.0106C16.574 67.6875 16.8874 66.7086 17.1849 65.8145C18.0009 63.5013 18.5187 61.6592 21.5899 56.4443C24.7222 51.6343 30.1491 40.3195 46.2129 28.6596C50.694 25.4623 57.4296 21.6725 64.6908 19.1958C64.7757 19.1663 64.8606 19.137 64.9457 19.1078C72.2831 16.5575 79.9992 15.4112 85.5341 15.1555C87.0249 15.0781 88.5023 15.0418 90 15.0462C110.014 15.01 129.917 23.0115 143.498 37.9981C146.296 40.8217 148.617 43.6322 150.599 46.3535C156.401 54.4126 159.448 61.4551 162.16 68.2447C162.733 69.7384 164.084 73.7537 165.046 79.7857C165.326 81.5553 165.567 83.4994 165.735 85.626C165.844 87.0132 165.921 88.4627 165.955 90C166.048 94.202 165.813 98.9068 165.005 103.97C164.775 105.41 164.53 106.708 164.271 107.93C163.054 113.119 162.179 117.387 157.394 126.484C151.866 138.025 135.936 152.837 125.536 157.37C120.494 159.898 117.453 160.873 115.324 161.572C114.729 161.761 114.203 161.918 113.719 162.059C112.451 162.427 111.47 162.687 110.173 163.022C102.971 164.815 97.3049 165.592 90 165.782C87.8136 165.821 85.5038 165.781 82.9652 165.604C82.2758 165.556 81.6925 165.282 81.6713 165.006C81.6489 164.73 82.1919 164.557 82.8699 164.605C85.4403 164.79 87.7823 164.832 90 164.792C97.1753 164.607 102.82 163.842 109.97 162.056C111.305 161.71 112.343 161.433 113.615 161.06C114.086 160.922 114.587 160.77 115.143 160.593C117.208 159.91 120.176 158.956 125.126 156.472C135.37 152 151.068 137.395 156.511 126.04C161.192 117.151 162.051 113.023 163.261 107.923C163.52 106.716 163.767 105.426 163.999 103.994C164.822 98.9185 165.06 94.2009 164.965 90C164.933 88.5471 164.861 87.1721 164.761 85.8601C164.6 83.7611 164.366 81.849 164.095 80.107C163.131 74.032 161.86 70.3172 161.391 69.0466C158.671 62.0915 155.523 54.8427 149.724 46.8302C147.785 44.1772 145.536 41.4645 142.867 38.7637ZM46.1126 151.694C46.6839 152.085 47.0608 152.597 46.9482 152.85C46.8356 153.102 46.2681 152.996 45.6873 152.601C42.6251 150.513 40.5477 148.826 38.953 147.479C36.0208 144.961 34.6952 143.628 32.8106 141.557C27.973 136.176 24.101 130.297 21.2833 124.692C16.5604 115.358 14.7915 106.914 14.1254 102.49C14.0191 101.789 14.1644 101.199 14.4347 101.167C14.7052 101.136 14.9974 101.667 15.1024 102.356C15.7571 106.692 17.4843 114.965 22.1145 124.151C24.8914 129.695 28.718 135.524 33.5215 140.871C35.3253 142.855 36.557 144.101 39.3788 146.543C40.9471 147.877 43.0135 149.57 46.1126 151.694Z" fill="#327F86"/>
<defs>
<clipPath id="clip0_2039_308">
<path d="M8.70972 90C8.70972 45.1046 45.1046 8.70966 90 8.70966C134.895 8.70966 171.29 45.1046 171.29 90C171.29 134.895 134.895 171.29 90 171.29C45.1046 171.29 8.70972 134.895 8.70972 90Z" fill="white"/>
</clipPath>
</defs>
</svg>
